# xmcd CD database file
#
# Track frame offsets:
#	150
#	18310
#	38380
#	60394
#	85941
#	108036
#	126458
#	148589
#	170559
#	191747
#	211684
#	237301
#
# Disc length: 3458 seconds
#
# Revision: 0
# Processed by: cddbd v1.5.1PL0 Copyright (c) Steve Scherf et al.
# Submitted via: CDex 1.50beta9
#
DISCID=990d800c
DTITLE=Tito Rojas - Solamente Exitos
DYEAR=2004
DGENRE=Salsa
TTITLE0=Todo Ha Cambiado
TTITLE1=Con Velo Y Corona
TTITLE2=La Bodega De L a Esquina
TTITLE3=Mejor Que Siempre
TTITLE4=El Vendedor Que No Fia
TTITLE5=Que Mujercita
TTITLE6=Huye Pa' Ya
TTITLE7=El Reloj De Pastora
TTITLE8=Amor De Cristal
TTITLE9=Ramona
TTITLE10=Dile La Verdad
TTITLE11=A La Montaña
EXTD=YEAR: 2004
EXTT0=
EXTT1=
EXTT2=
EXTT3=
EXTT4=
EXTT5=
EXTT6=
EXTT7=
EXTT8=
EXTT9=
EXTT10=
EXTT11=
PLAYORDER=
